<?xml version="1.0" encoding="utf-8"?>
<!-- Generator: Adobe Illustrator 26.0.2, SVG Export Plug-In . SVG Version: 6.00 Build 0)  -->
<svg version="1.1" id="Layer_1" xmlns="http://www.w3.org/2000/svg" xmlns:xlink="http://www.w3.org/1999/xlink" x="0px" y="0px"
	 viewBox="0 0 25 25" style="enable-background:new 0 0 25 25;" xml:space="preserve">
<path d="M23,0H1.9C0.8,0,0,0.8,0,1.9v21.2c0,1,0.8,1.9,1.9,1.9h21.2c1,0,1.9-0.8,1.9-1.9V1.9C24.9,0.8,24.1,0,23,0z M8.4,9.1
	c0,0.3-0.3,0.6-0.6,0.6H3.4C3,9.8,2.7,9.5,2.7,9.1v-6c0-0.3,0.3-0.6,0.6-0.6h4.4c0.3,0,0.6,0.3,0.6,0.6L8.4,9.1L8.4,9.1z M15.2,21.8
	c0,0.3-0.3,0.6-0.6,0.6h-4.4c-0.3,0-0.6-0.3-0.6-0.6V3.1c0-0.3,0.3-0.6,0.6-0.6h4.4c0.3,0,0.6,0.3,0.6,0.6
	C15.2,3.1,15.2,21.8,15.2,21.8z M22.2,9.1c0,0.3-0.3,0.6-0.6,0.6h-4.4c-0.3,0-0.6-0.3-0.6-0.6v-6c0-0.3,0.3-0.6,0.6-0.6h4.4
	c0.3,0,0.6,0.3,0.6,0.6V9.1z"/>
</svg>
