<?xml version="1.0" encoding="utf-8"?>
<!-- Generator: Adobe Illustrator 26.0.2, SVG Export Plug-In . SVG Version: 6.00 Build 0)  -->
<svg version="1.0" id="Layer_1" xmlns="http://www.w3.org/2000/svg" xmlns:xlink="http://www.w3.org/1999/xlink" x="0px" y="0px"
	 viewBox="0 0 20 20" style="enable-background:new 0 0 20 20;" xml:space="preserve">
<path d="M15.6,3.4H4.4c-0.5,0-1,0.4-1,1v11.3c0,0.5,0.4,1,1,1h11.3c0.5,0,1-0.4,1-1V4.4C16.6,3.8,16.2,3.4,15.6,3.4z M7.8,8.2
	c0,0.2-0.1,0.3-0.3,0.3H5.1C5,8.6,4.8,8.4,4.8,8.2V5c0-0.2,0.1-0.3,0.3-0.3h2.3c0.2,0,0.3,0.1,0.3,0.3V8.2z M11.5,15
	c0,0.2-0.1,0.3-0.3,0.3H8.8c-0.2,0-0.3-0.1-0.3-0.3V5c0-0.2,0.1-0.3,0.3-0.3h2.3c0.2,0,0.3,0.1,0.3,0.3V15z M15.2,8.2
	c0,0.2-0.1,0.3-0.3,0.3h-2.3c-0.2,0-0.3-0.1-0.3-0.3V5c0-0.2,0.1-0.3,0.3-0.3h2.3c0.2,0,0.3,0.1,0.3,0.3V8.2z"/>
</svg>
