<svg xmlns="http://www.w3.org/2000/svg" viewBox="0 0 20 20"><defs><style>.cls-1{fill:#fff;}.cls-2{fill:#ff0;}</style></defs><g id="Layer_3" data-name="Layer 3"><rect className="cls-1" x="-10" y="-0.25" width="40" height="40" rx="3"/><path className="cls-2" d="M17.6342,3.75h7.00173a1,1,0,0,1,1,1v9.63636a1,1,0,0,1-1,1H17.6342a1,1,0,0,1-1-1V4.75A1,1,0,0,1,17.6342,3.75Zm-23.27013,1,0,9.63636a1,1,0,0,0,1,1H2.36581a1,1,0,0,0,1-1l0-9.63636a1,1,0,0,0-1-1H-4.63593A1,1,0,0,0-5.63593,4.75Zm11.13507,0,0,30a1,1,0,0,0,1,1h7.00173a1,1,0,0,0,1-1l0-30a1,1,0,0,0-1-1l-7.00172,0A1,1,0,0,0,5.49914,4.75Z"/></g></svg>