<?xml version="1.0" encoding="utf-8"?>
<!-- Generator: Adobe Illustrator 26.0.2, SVG Export Plug-In . SVG Version: 6.00 Build 0)  -->
<svg version="1.0" id="Layer_1" xmlns="http://www.w3.org/2000/svg" xmlns:xlink="http://www.w3.org/1999/xlink" x="0px" y="0px"
	 viewBox="0 0 25 25" style="enable-background:new 0 0 25 25;" xml:space="preserve">
<style type="text/css">
	.st0{fill:#0065FF;}
</style>
<path d="M-21.9,5.9h-11.3c-0.5,0-1,0.4-1,1v11.3c0,0.5,0.4,1,1,1h11.3c0.5,0,1-0.4,1-1V6.9C-20.9,6.3-21.3,5.9-21.9,5.9z
	 M-29.7,10.7c0,0.2-0.1,0.3-0.3,0.3h-2.3c-0.2,0-0.3-0.1-0.3-0.3V7.5c0-0.2,0.1-0.3,0.3-0.3h2.3c0.2,0,0.3,0.1,0.3,0.3V10.7z
	 M-26,17.5c0,0.2-0.1,0.3-0.3,0.3h-2.3c-0.2,0-0.3-0.1-0.3-0.3v-10c0-0.2,0.1-0.3,0.3-0.3h2.3c0.2,0,0.3,0.1,0.3,0.3V17.5z
	 M-22.3,10.7c0,0.2-0.1,0.3-0.3,0.3H-25c-0.2,0-0.3-0.1-0.3-0.3V7.5c0-0.2,0.1-0.3,0.3-0.3h2.3c0.2,0,0.3,0.1,0.3,0.3V10.7z"/>
<path className="st0" d="M23.1,0H1.9C0.8,0,0,0.8,0,1.9v21.3c0,1,0.8,1.9,1.9,1.9h21.3c1,0,1.9-0.8,1.9-1.9V1.9C25,0.8,24.2,0,23.1,0z
	 M8.4,9.1c0,0.3-0.3,0.6-0.6,0.6H3.4C3,9.8,2.7,9.5,2.7,9.1v-6c0-0.3,0.3-0.6,0.6-0.6h4.4c0.3,0,0.6,0.3,0.6,0.6V9.1z M15.3,21.9
	c0,0.3-0.3,0.6-0.6,0.6h-4.4c-0.3,0-0.6-0.3-0.6-0.6V3.1c0-0.3,0.3-0.6,0.6-0.6h4.4c0.3,0,0.6,0.3,0.6,0.6V21.9z M22.3,9.1
	c0,0.3-0.3,0.6-0.6,0.6h-4.4c-0.3,0-0.6-0.3-0.6-0.6v-6c0-0.3,0.3-0.6,0.6-0.6h4.4c0.3,0,0.6,0.3,0.6,0.6V9.1z"/>
</svg>
