<?xml version="1.0" encoding="utf-8"?>
<!-- Generator: Adobe Illustrator 26.0.2, SVG Export Plug-In . SVG Version: 6.00 Build 0)  -->
<svg version="1.1" id="Layer_1" xmlns="http://www.w3.org/2000/svg" xmlns:xlink="http://www.w3.org/1999/xlink" x="0px" y="0px"
	 viewBox="0 0 1920 1080" style="enable-background:new 0 0 1920 1080;" xml:space="preserve">
<style type="text/css">
	.st0{fill-rule:evenodd;clip-rule:evenodd;fill:url(#SVGID_1_);}
	.st1{fill:url(#SVGID_00000107585849790069606530000016212134875035922086_);}
	.st2{fill:url(#SVGID_00000159448872156449176130000007929445694027909023_);}
	.st3{fill-rule:evenodd;clip-rule:evenodd;fill:url(#SVGID_00000029749264855103453310000011747501925874662307_);}
	.st4{fill:url(#SVGID_00000026850799687957047730000017340268320417559454_);}
	.st5{fill:url(#SVGID_00000072251164429132062570000016281705816874898621_);}
	.st6{fill-rule:evenodd;clip-rule:evenodd;fill:url(#SVGID_00000041988996719002883380000000040933887123753347_);}
	.st7{fill:url(#SVGID_00000138574897428046723840000011007293402447331493_);}
	.st8{fill:url(#SVGID_00000002385729972100966180000005012981193320986002_);}
	.st9{fill-rule:evenodd;clip-rule:evenodd;fill:url(#SVGID_00000074401085887094837020000005962421873237545873_);}
	.st10{fill:url(#SVGID_00000034091981126135565360000017300680995673267642_);}
	.st11{fill:url(#SVGID_00000046303794567356857970000008763904565528205496_);}
	.st12{fill-rule:evenodd;clip-rule:evenodd;fill:url(#SVGID_00000081613264176430130440000002201980215573635004_);}
	.st13{fill-rule:evenodd;clip-rule:evenodd;fill:#FFFFFF;}
	.st14{fill:#FFFFFF;}
</style>
<g>
	<linearGradient id="SVGID_1_" gradientUnits="userSpaceOnUse" x1="-20.9299" y1="13.6826" x2="-20.9299" y2="-2.3111">
		<stop  offset="0" style="stop-color:#0052CC"/>
		<stop  offset="1" style="stop-color:#2684FF"/>
	</linearGradient>
	<path class="st0" d="M-14.8-2.3H-27c-1,0-1.9,0.8-1.9,1.9v12.2c0,0.5,0.2,1,0.6,1.4c0.4,0.4,0.8,0.6,1.3,0.6h12.2
		c0.5,0,1-0.2,1.3-0.6c0.4-0.4,0.6-0.8,0.6-1.3V-0.4C-12.9-1.5-13.8-2.3-14.8-2.3z M-15.5,7.5c-0.4,0.4-0.8,0.6-1.3,0.6
		c0,0-0.4,0-0.9,0h-1.8c-0.3,0-0.6,0.3-0.6,0.6V10c0,0.4-0.2,0.9-0.6,1.2c-0.4,0.4-0.8,0.6-1.3,0.6h-2.7c-1,0-1.9-0.9-1.9-1.9V1.9
		c0-1,0.9-1.9,1.9-1.9h2.7c0.4,0,1.8,0,2.2,0h3c1,0,1.9,0.9,1.9,1.9l0,4.3C-14.9,6.7-15.1,7.2-15.5,7.5z"/>
	
		<linearGradient id="SVGID_00000169519090163820191870000008301855929405684643_" gradientUnits="userSpaceOnUse" x1="-18.1585" y1="6.8318" x2="-18.1585" y2="1.2698">
		<stop  offset="0" style="stop-color:#0052CC"/>
		<stop  offset="1" style="stop-color:#2684FF"/>
	</linearGradient>
	<path style="fill:url(#SVGID_00000169519090163820191870000008301855929405684643_);" d="M-16.2,6.2c0,0.2-0.1,0.3-0.2,0.5
		c-0.1,0.1-0.3,0.2-0.4,0.2h-2.7c-0.3,0-0.6-0.3-0.6-0.6V1.9c0-0.3,0.3-0.6,0.6-0.6h2.7c0.3,0,0.6,0.3,0.6,0.6L-16.2,6.2z"/>
	
		<linearGradient id="SVGID_00000127723776080508249550000008636340724708733117_" gradientUnits="userSpaceOnUse" x1="-23.3712" y1="10.4762" x2="-23.3712" y2="1.2698">
		<stop  offset="0" style="stop-color:#0052CC"/>
		<stop  offset="1" style="stop-color:#2684FF"/>
	</linearGradient>
	<path style="fill:url(#SVGID_00000127723776080508249550000008636340724708733117_);" d="M-21.4,9.8c0,0.2-0.1,0.3-0.2,0.5
		c-0.1,0.1-0.3,0.2-0.5,0.2h-2.7c-0.3,0-0.6-0.3-0.6-0.6V1.9c0-0.3,0.3-0.6,0.6-0.6h2.7c0.3,0,0.6,0.3,0.6,0.6L-21.4,9.8z"/>
</g>
<g>
	
		<linearGradient id="SVGID_00000025428233429299590070000006638474912927557039_" gradientUnits="userSpaceOnUse" x1="-41.6815" y1="13.1826" x2="-41.6815" y2="-1.8112">
		<stop  offset="0" style="stop-color:#0052CC"/>
		<stop  offset="1" style="stop-color:#2684FF"/>
	</linearGradient>
	<path style="fill-rule:evenodd;clip-rule:evenodd;fill:url(#SVGID_00000025428233429299590070000006638474912927557039_);" d="
		M-36-1.8h-11.4c-1,0-1.8,0.8-1.8,1.8v11.4c0,0.5,0.2,0.9,0.5,1.3c0.3,0.3,0.8,0.5,1.3,0.5H-36c0.5,0,0.9-0.2,1.3-0.5
		c0.3-0.3,0.5-0.8,0.5-1.3V0C-34.2-1-35-1.8-36-1.8z M-36.6,7.4C-36.9,7.8-37.4,8-37.8,8c0,0-0.3,0-0.8,0h-1.7
		c-0.3,0-0.6,0.3-0.6,0.6v1.2c0,0.4-0.2,0.8-0.5,1.1c-0.3,0.3-0.8,0.5-1.3,0.5h-2.5c-1,0-1.8-0.8-1.8-1.8V2.1c0-1,0.8-1.8,1.8-1.8
		h2.5c0.4,0,1.7,0,2.1,0h2.8c1,0,1.8,0.8,1.8,1.8l0,4C-36,6.6-36.2,7.1-36.6,7.4z"/>
	
		<linearGradient id="SVGID_00000114057976202228268100000001920226118980010896_" gradientUnits="userSpaceOnUse" x1="-39.0834" y1="6.7601" x2="-39.0834" y2="1.5459">
		<stop  offset="0" style="stop-color:#0052CC"/>
		<stop  offset="1" style="stop-color:#2684FF"/>
	</linearGradient>
	<path style="fill:url(#SVGID_00000114057976202228268100000001920226118980010896_);" d="M-37.2,6.2c0,0.2-0.1,0.3-0.2,0.4
		c-0.1,0.1-0.3,0.2-0.4,0.2h-2.5c-0.3,0-0.6-0.3-0.6-0.6v-4c0-0.3,0.3-0.6,0.6-0.6h2.5c0.3,0,0.6,0.3,0.6,0.6L-37.2,6.2z"/>
	
		<linearGradient id="SVGID_00000027590114116603328030000000336953817430620606_" gradientUnits="userSpaceOnUse" x1="-43.9702" y1="10.1767" x2="-43.9702" y2="1.5459">
		<stop  offset="0" style="stop-color:#0052CC"/>
		<stop  offset="1" style="stop-color:#2684FF"/>
	</linearGradient>
	<path style="fill:url(#SVGID_00000027590114116603328030000000336953817430620606_);" d="M-42.1,9.6c0,0.2-0.1,0.3-0.2,0.4
		c-0.1,0.1-0.3,0.2-0.4,0.2h-2.5c-0.3,0-0.6-0.3-0.6-0.6V2.1c0-0.3,0.3-0.6,0.6-0.6h2.5c0.3,0,0.6,0.3,0.6,0.6L-42.1,9.6z"/>
</g>
<g>
	
		<linearGradient id="SVGID_00000120551119640160222250000008398203244700883843_" gradientUnits="userSpaceOnUse" x1="-82.0382" y1="38.1723" x2="-82.0382" y2="-1.8112">
		<stop  offset="0" style="stop-color:#0052CC"/>
		<stop  offset="1" style="stop-color:#2684FF"/>
	</linearGradient>
	<path style="fill-rule:evenodd;clip-rule:evenodd;fill:url(#SVGID_00000120551119640160222250000008398203244700883843_);" d="
		M-66.8-1.8h-30.5c-2.6,0-4.7,2.1-4.7,4.7v30.5c0,1.3,0.5,2.5,1.4,3.4c0.9,0.9,2.1,1.4,3.4,1.4h30.5c1.3,0,2.5-0.5,3.4-1.4
		c0.9-0.9,1.4-2.1,1.4-3.4V2.9C-62,0.3-64.2-1.8-66.8-1.8z M-68.4,22.8c-0.9,0.9-2.1,1.4-3.4,1.4c0,0-0.9,0-2.1,0h-4.6
		c-0.9,0-1.6,0.7-1.6,1.6V29c-0.1,1.1-0.6,2.1-1.4,2.9c-0.9,0.9-2.1,1.4-3.3,1.4h-6.7c-2.6,0-4.7-2.1-4.7-4.8V8.7
		c0-2.6,2.1-4.7,4.8-4.8h6.7c1,0,4.5,0,5.5,0h7.5c2.6,0,4.7,2.1,4.7,4.8l0,10.7C-67,20.7-67.5,22-68.4,22.8z"/>
	
		<linearGradient id="SVGID_00000170274768339250777310000017786105086628876195_" gradientUnits="userSpaceOnUse" x1="-75.1098" y1="21.0456" x2="-75.1098" y2="7.1411">
		<stop  offset="0" style="stop-color:#0052CC"/>
		<stop  offset="1" style="stop-color:#2684FF"/>
	</linearGradient>
	<path style="fill:url(#SVGID_00000170274768339250777310000017786105086628876195_);" d="M-70.2,19.5c0,0.4-0.2,0.8-0.5,1.1
		c-0.3,0.3-0.7,0.5-1.1,0.5h-6.7c-0.9,0-1.6-0.7-1.6-1.6V8.7c0-0.9,0.7-1.6,1.6-1.6h6.7c0.9,0,1.6,0.7,1.6,1.6L-70.2,19.5z"/>
	
		<linearGradient id="SVGID_00000139977575076494031070000006322626366370328997_" gradientUnits="userSpaceOnUse" x1="-88.1413" y1="30.1566" x2="-88.1413" y2="7.1411">
		<stop  offset="0" style="stop-color:#0052CC"/>
		<stop  offset="1" style="stop-color:#2684FF"/>
	</linearGradient>
	<path style="fill:url(#SVGID_00000139977575076494031070000006322626366370328997_);" d="M-83.2,28.6c0,0.4-0.2,0.8-0.5,1.1
		c-0.3,0.3-0.7,0.5-1.1,0.5h-6.7c-0.9,0-1.6-0.7-1.6-1.6V8.7c0-0.9,0.7-1.6,1.6-1.6h6.7c0.9,0,1.6,0.7,1.6,1.6L-83.2,28.6z"/>
</g>
<g>
	
		<linearGradient id="SVGID_00000178909218094374696740000001882898890134973359_" gradientUnits="userSpaceOnUse" x1="-121.9363" y1="23.1785" x2="-121.9363" y2="-1.8112">
		<stop  offset="0" style="stop-color:#0052CC"/>
		<stop  offset="1" style="stop-color:#2684FF"/>
	</linearGradient>
	<path style="fill-rule:evenodd;clip-rule:evenodd;fill:url(#SVGID_00000178909218094374696740000001882898890134973359_);" d="
		M-112.4-1.8h-19.1c-1.6,0-3,1.3-3,3v19c0,0.8,0.3,1.5,0.9,2.1c0.6,0.6,1.3,0.9,2.1,0.9h19.1c0.8,0,1.5-0.3,2.1-0.9
		c0.6-0.6,0.9-1.3,0.9-2.1v-19C-109.4-0.5-110.8-1.8-112.4-1.8z M-113.4,13.6c-0.6,0.6-1.3,0.9-2.1,0.9c0,0-0.6,0-1.3,0h-2.9
		c-0.5,0-1,0.4-1,1v2c-0.1,0.7-0.4,1.3-0.9,1.8c-0.6,0.6-1.3,0.9-2.1,0.9h-4.2c-1.6,0-3-1.3-3-3V4.8c0-1.6,1.3-3,3-3h4.2
		c0.6,0,2.8,0,3.5,0h4.7c1.6,0,3,1.3,3,3l0,6.7C-112.5,12.3-112.9,13-113.4,13.6z"/>
	
		<linearGradient id="SVGID_00000156560320722078834260000013849362659113763233_" gradientUnits="userSpaceOnUse" x1="-117.606" y1="12.4743" x2="-117.606" y2="3.784">
		<stop  offset="0" style="stop-color:#0052CC"/>
		<stop  offset="1" style="stop-color:#2684FF"/>
	</linearGradient>
	<path style="fill:url(#SVGID_00000156560320722078834260000013849362659113763233_);" d="M-114.5,11.5c0,0.3-0.1,0.5-0.3,0.7
		c-0.2,0.2-0.4,0.3-0.7,0.3h-4.2c-0.5,0-1-0.4-1-1V4.8c0-0.5,0.4-1,1-1h4.2c0.5,0,1,0.4,1,1L-114.5,11.5z"/>
	
		<linearGradient id="SVGID_00000128458939834585846620000006946035135247580081_" gradientUnits="userSpaceOnUse" x1="-125.7507" y1="18.1687" x2="-125.7507" y2="3.784">
		<stop  offset="0" style="stop-color:#0052CC"/>
		<stop  offset="1" style="stop-color:#2684FF"/>
	</linearGradient>
	<path style="fill:url(#SVGID_00000128458939834585846620000006946035135247580081_);" d="M-122.7,17.2c0,0.3-0.1,0.5-0.3,0.7
		c-0.2,0.2-0.4,0.3-0.7,0.3h-4.2c-0.5,0-1-0.4-1-1V4.8c0-0.5,0.4-1,1-1h4.2c0.5,0,1,0.4,1,1L-122.7,17.2z"/>
</g>
<linearGradient id="SVGID_00000096775349990710912480000017740454603364472204_" gradientUnits="userSpaceOnUse" x1="960" y1="1080" x2="960" y2="1.7999">
	<stop  offset="0" style="stop-color:#0052CC"/>
	<stop  offset="1" style="stop-color:#2684FF"/>
</linearGradient>
<rect y="1.8" style="fill-rule:evenodd;clip-rule:evenodd;fill:url(#SVGID_00000096775349990710912480000017740454603364472204_);" width="1920" height="1078.2"/>
<g>
	<g>
		<path class="st13" d="M203.2,70.7H88.5c-9.8,0-17.8,7.9-17.8,17.8V203c-0.1,4.8,1.8,9.3,5.2,12.7c3.3,3.3,7.9,5.2,12.6,5.2h114.6
			c4.8,0,9.3-1.9,12.6-5.3c3.3-3.3,5.2-7.9,5.2-12.6V88.5C221,78.7,213,70.7,203.2,70.7z M197,163.3c-3.4,3.3-7.9,5.2-12.6,5.2
			c0,0-3.5,0-8,0.1h-17.2c-3.3,0.1-6,2.7-6,6v12.1c-0.4,4.1-2.3,8-5.2,10.9c-3.3,3.3-7.8,5.2-12.6,5.2h-25.1
			c-9.8-0.1-17.8-8.1-17.8-17.9v-74.6c0-9.8,8-17.8,17.9-17.9h25.1c3.9,0.1,16.9,0.1,20.8,0h28.2c9.8,0.1,17.8,8.1,17.8,17.9
			l0.1,40.3C202.3,155.4,200.4,160,197,163.3z"/>
		<path class="st14" d="M190.4,150.6c0,1.6-0.7,3.1-1.8,4.2c-1.1,1.1-2.6,1.7-4.2,1.7h-25.1c-3.3,0-6-2.7-6-6v-40.3
			c0-3.3,2.7-5.9,6-6h25.1c3.3,0.1,5.9,2.7,5.9,6L190.4,150.6z"/>
		<path class="st14" d="M141.4,184.8c-0.1,1.6-0.7,3.1-1.8,4.2c-1.1,1.1-2.6,1.7-4.2,1.7h-25.1c-3.3,0-6-2.7-6-6v-74.6
			c0-3.3,2.7-5.9,6-6h25.1c3.3,0.1,5.9,2.7,5.9,6L141.4,184.8z"/>
	</g>
	<g>
		<path class="st14" d="M289.8,203c-2.6,0-4.5-0.7-5.9-2.2c-1.4-1.4-2.1-3.4-2.1-6v-93.3c0-2.7,0.7-4.7,2.2-6.1
			c1.4-1.4,3.4-2.1,6-2.1h36.8c11.7,0,20.7,2.9,27.1,8.7c6.4,5.8,9.5,13.9,9.5,24.4c0,10.6-3.2,18.8-9.5,24.6
			c-6.4,5.8-15.4,8.7-27.1,8.7h-28.9v35.1c0,2.6-0.7,4.6-2,6C294.5,202.3,292.5,203,289.8,203z M297.9,147h26.6
			c7.7,0,13.5-1.7,17.5-5.2c3.9-3.4,5.9-8.5,5.9-15.3c0-6.7-2-11.7-5.9-15.2c-4-3.4-9.8-5.2-17.5-5.2h-26.6V147z"/>
		<path class="st14" d="M382.8,203c-2.6,0-4.5-0.7-5.9-2.1c-1.3-1.4-2-3.3-2-5.8v-61.6c0-2.6,0.7-4.5,2-5.8c1.3-1.3,3.2-2,5.5-2
			c2.5,0,4.3,0.7,5.6,2c1.3,1.3,1.9,3.3,1.9,5.8v11.2h-1.5c1.6-6.2,4.7-10.8,9.1-14c4.4-3.2,10.1-5,16.9-5.5
			c1.8-0.1,3.3,0.4,4.4,1.4c1.1,1,1.7,2.6,1.8,4.8c0.2,2.2-0.3,3.9-1.4,5.2c-1.1,1.3-2.9,2-5.2,2.2l-2.9,0.3
			c-6.7,0.6-11.8,2.7-15.2,6.3c-3.5,3.6-5.2,8.5-5.2,14.8v34.9c0,2.5-0.6,4.4-1.9,5.8C387.5,202.3,385.5,203,382.8,203z"/>
		<path class="st14" d="M467.7,203.3c-8.2,0-15.3-1.6-21.2-4.7c-5.9-3.1-10.5-7.6-13.7-13.4c-3.2-5.8-4.8-12.7-4.8-20.7
			c0-7.8,1.6-14.6,4.8-20.5c3.2-5.8,7.5-10.4,13.1-13.7c5.5-3.3,11.9-4.9,18.9-4.9c5.2,0,9.9,0.8,14,2.5c4.1,1.7,7.6,4.2,10.5,7.4
			c2.9,3.2,5.1,7.2,6.6,11.8c1.5,4.6,2.2,9.8,2.2,15.5c0,1.7-0.5,3.1-1.5,3.9c-1,0.9-2.6,1.3-4.6,1.3h-51.7v-9.5h47.4l-2.6,2.2
			c0-5.1-0.7-9.5-2.2-13.1c-1.5-3.6-3.7-6.3-6.6-8.2c-2.9-1.9-6.5-2.8-10.9-2.8c-4.8,0-8.9,1.1-12.2,3.4c-3.3,2.3-5.9,5.4-7.6,9.4
			c-1.7,4-2.6,8.7-2.6,14v0.9c0,9,2.1,15.8,6.4,20.4c4.3,4.6,10.4,6.9,18.6,6.9c3.1,0,6.3-0.4,9.8-1.2c3.4-0.8,6.7-2.2,9.8-4.2
			c1.7-1,3.3-1.5,4.7-1.4c1.4,0.1,2.5,0.6,3.4,1.4c0.9,0.8,1.4,1.8,1.6,3.1c0.2,1.2,0,2.5-0.6,3.8c-0.6,1.3-1.7,2.4-3.2,3.5
			c-3.5,2.4-7.5,4.1-12.2,5.3C476.4,202.7,472,203.3,467.7,203.3z"/>
		<path class="st14" d="M539.2,203.3c-8,0-14-2.3-18.1-7c-4.1-4.7-6.1-11.4-6.1-20.2v-75.9c0-2.6,0.7-4.5,2-5.9c1.3-1.3,3.2-2,5.7-2
			c2.5,0,4.4,0.7,5.8,2c1.4,1.3,2.1,3.3,2.1,5.9v75c0,5.1,1.1,9,3.2,11.5c2.1,2.5,5.2,3.8,9.2,3.8c0.9,0,1.7,0,2.5-0.1
			c0.7-0.1,1.4-0.1,2.2-0.2c1.2-0.1,2.1,0.2,2.6,1c0.5,0.8,0.8,2.3,0.8,4.7c0,2.2-0.5,3.8-1.4,5s-2.4,1.9-4.5,2.2
			c-0.9,0.1-1.9,0.2-2.9,0.2C541.1,203.3,540.2,203.3,539.2,203.3z"/>
		<path class="st14" d="M586.4,203.3c-8,0-14-2.3-18.1-7c-4.1-4.7-6.1-11.4-6.1-20.2v-75.9c0-2.6,0.7-4.5,2-5.9c1.3-1.3,3.2-2,5.7-2
			c2.5,0,4.4,0.7,5.8,2c1.4,1.3,2.1,3.3,2.1,5.9v75c0,5.1,1.1,9,3.2,11.5c2.1,2.5,5.2,3.8,9.2,3.8c0.9,0,1.7,0,2.5-0.1
			c0.7-0.1,1.4-0.1,2.2-0.2c1.2-0.1,2.1,0.2,2.6,1c0.5,0.8,0.8,2.3,0.8,4.7c0,2.2-0.5,3.8-1.4,5s-2.4,1.9-4.5,2.2
			c-0.9,0.1-1.9,0.2-2.9,0.2C588.3,203.3,587.3,203.3,586.4,203.3z"/>
		<path class="st14" d="M641.9,203.3c-7.6,0-14.1-1.6-19.6-4.8c-5.5-3.2-9.8-7.7-12.9-13.5c-3.1-5.9-4.6-12.7-4.6-20.6
			c0-6.1,0.9-11.4,2.6-16.2c1.7-4.7,4.2-8.8,7.5-12.2c3.2-3.4,7.1-6.1,11.7-7.9c4.6-1.8,9.7-2.7,15.3-2.7c7.5,0,14,1.6,19.5,4.8
			c5.5,3.2,9.8,7.7,12.9,13.5c3.1,5.8,4.6,12.7,4.6,20.7c0,6-0.9,11.3-2.6,16.2c-1.7,4.8-4.2,8.9-7.5,12.3c-3.2,3.4-7.1,6-11.7,7.8
			C652.5,202.4,647.5,203.3,641.9,203.3z M641.9,191.3c4.2,0,7.9-1,11.1-3.1c3.2-2.1,5.7-5.1,7.5-9.1c1.8-4,2.7-8.9,2.7-14.8
			c0-8.8-2-15.5-5.9-20c-3.9-4.5-9-6.8-15.4-6.8c-4.3,0-8.1,1-11.2,3c-3.2,2-5.7,5-7.5,9c-1.8,4-2.7,8.9-2.7,14.8
			c0,8.7,1.9,15.4,5.9,20C630.3,189,635.5,191.3,641.9,191.3z"/>
	</g>
</g>
</svg>
