<?xml version="1.0" encoding="utf-8"?>
<!-- Generator: Adobe Illustrator 26.0.2, SVG Export Plug-In . SVG Version: 6.00 Build 0)  -->
<svg version="1.1" id="Layer_1" xmlns="http://www.w3.org/2000/svg" xmlns:xlink="http://www.w3.org/1999/xlink" x="0px" y="0px"
	 viewBox="0 0 24 24" style="enable-background:new 0 0 24 24;" xml:space="preserve">
<circle cx="4.9" cy="7.4" r="1.5"/>
<circle cx="4.9" cy="13.9" r="1.5"/>
<path d="M19,7.9H8.6c-0.6,0-1-0.4-1-1s0.4-1,1-1H19c0.6,0,1,0.4,1,1S19.5,7.9,19,7.9z"/>
<path d="M16.3,11.3H8.6c-0.6,0-1-0.4-1-1s0.4-1,1-1h7.8c0.6,0,1,0.4,1,1S16.9,11.3,16.3,11.3z"/>
<path d="M19,14.5H8.6c-0.6,0-1-0.4-1-1c0-0.6,0.4-1,1-1H19c0.6,0,1,0.4,1,1C20,14,19.5,14.5,19,14.5z"/>
<path d="M16.3,17.8H8.6c-0.6,0-1-0.4-1-1s0.4-1,1-1h7.8c0.6,0,1,0.4,1,1S16.9,17.8,16.3,17.8z"/>
</svg>
