<?xml version="1.0" encoding="utf-8"?>
<!-- Generator: Adobe Illustrator 26.0.2, SVG Export Plug-In . SVG Version: 6.00 Build 0)  -->
<svg version="1.0" id="Layer_1" xmlns="http://www.w3.org/2000/svg" xmlns:xlink="http://www.w3.org/1999/xlink" x="0px" y="0px"
	 viewBox="0 0 24 24" style="enable-background:new 0 0 24 24;" xml:space="preserve">
<style type="text/css">
	.st0{fill:none;stroke:#000000;stroke-width:6;stroke-linecap:round;stroke-miterlimit:10;}
</style>
<path d="M-38.3,3c-1.1,0-2,0.9-2,2v14c0,1.1,0.9,2,2,2h14c1.1,0,2-0.9,2-2v-6.8c0-0.6-0.4-1-1-1h0c-0.6,0-1,0.4-1,1l0,5.8
	c0,0.6-0.4,1-1,1h-12c-0.6,0-1-0.4-1-1V6c0-0.6,0.4-1,1-1h9.8c0.6,0,1-0.4,1-1v0c0-0.6-0.4-1-1-1H-38.3z"/>
<path d="M-21.6,4l-9.1,9.1c-0.3,0.3-0.7,0.3-0.9,0l-2.1-2.1c-0.4-0.4-1-0.4-1.4,0v0c-0.4,0.4-0.4,1,0,1.4l3.3,3.3
	c0.4,0.4,1,0.4,1.4,0l10.3-10.3c0.4-0.4,0.4-1,0-1.4l0,0C-20.6,3.6-21.2,3.6-21.6,4z"/>
<image style="display:none;overflow:visible;" width="76" height="82" xlink:href="6B257C80.jpg"  transform="matrix(0.1024 -0.1024 0.1024 0.1024 -28.16 10.7717)">
</image>
<image style="overflow:visible;" width="88" height="97" xlink:href="6B257C81.jpg"  transform="matrix(0.7071 -0.7071 0.7071 0.7071 -218.4711 8.6492)">
</image>
<path class="st0" d="M-130.8-5.5c0,11.2,0,22.4,0,33.6c-1.6,7.7-8.5,13.3-16.3,13.3c-7.9,0-14.7-5.6-16.3-13.3c0-11.2,0-22.4,0-33.6
	c-1.2-8,4.9-14.4,10.9-14.4s12.1,6.5,10.9,14.4c0,9.7,0,19.3,0,29c-0.5,2.6-2.8,4.6-5.4,4.6s-5-1.9-5.4-4.6c0-9.7,0-19.3,0-29"/>
<g>
	<path d="M9.6,21.1c-1.5,0-3.1-0.6-4.2-1.7c-2-2-2.3-5.1-0.8-7.5l0.1-0.2l7-7c0.8-1.1,2.1-1.8,3.5-1.9c1.3-0.1,2.5,0.3,3.3,1.1
		c0.8,0.8,1.2,2,1.1,3.3c-0.1,1.4-0.8,2.7-1.9,3.5l-6.2,6.1c-1.1,0.7-2.5,0.6-3.4-0.3c-0.9-0.9-1-2.3-0.3-3.4L8,13.1L14.1,7
		c0.4-0.4,1-0.4,1.4,0c0.4,0.4,0.4,1,0,1.4l-6,6c-0.1,0.2-0.1,0.6,0.1,0.8c0.2,0.2,0.5,0.2,0.8,0.1l6.1-6.1c0.7-0.5,1.1-1.3,1.2-2.1
		c0.1-0.7-0.1-1.3-0.5-1.7c-0.4-0.4-1-0.6-1.7-0.5c-0.8,0.1-1.6,0.5-2.1,1.2l-0.1,0.1l-7,7c-1,1.5-0.7,3.6,0.6,4.9
		c1.3,1.3,3.3,1.5,4.9,0.6l7-7c0.4-0.4,1-0.4,1.4,0s0.4,1,0,1.4l-7.2,7.2C11.9,20.8,10.7,21.1,9.6,21.1z"/>
</g>
</svg>
