<?xml version="1.0" encoding="utf-8"?>
<!-- Generator: Adobe Illustrator 26.0.2, SVG Export Plug-In . SVG Version: 6.00 Build 0)  -->
<svg version="1.1" id="Layer_1" xmlns="http://www.w3.org/2000/svg" xmlns:xlink="http://www.w3.org/1999/xlink" x="0px" y="0px"
	 viewBox="0 0 24 24" style="enable-background:new 0 0 24 24;" xml:space="preserve">
<path d="M5,3C3.9,3,3,3.9,3,5v14c0,1.1,0.9,2,2,2h14c1.1,0,2-0.9,2-2v-6.8c0-0.6-0.4-1-1-1h0c-0.6,0-1,0.4-1,1l0,5.8
	c0,0.6-0.4,1-1,1H6c-0.6,0-1-0.4-1-1V6c0-0.6,0.4-1,1-1h9.8c0.6,0,1-0.4,1-1v0c0-0.6-0.4-1-1-1H5z M20.6,4l-9.1,9.1
	c-0.3,0.3-0.7,0.3-0.9,0L8.4,11c-0.4-0.4-1-0.4-1.4,0l0,0c-0.4,0.4-0.4,1,0,1.4l3.3,3.3c0.4,0.4,1,0.4,1.4,0L22,5.4
	c0.4-0.4,0.4-1,0-1.4v0C21.6,3.6,21,3.6,20.6,4z"/>
</svg>
