<?xml version="1.0" encoding="utf-8"?>
<!-- Generator: Adobe Illustrator 26.0.2, SVG Export Plug-In . SVG Version: 6.00 Build 0)  -->
<svg version="1.1" id="Layer_1" xmlns="http://www.w3.org/2000/svg" xmlns:xlink="http://www.w3.org/1999/xlink" x="0px" y="0px"
	 viewBox="0 0 24 24" style="enable-background:new 0 0 24 24;" xml:space="preserve">
<style type="text/css">
	.st0{display:none;}
	.st1{display:none;fill:#DB4040;}
</style>
<image style="display:none;overflow:visible;" width="107" height="90" xlink:href="FDB11C8D.jpg"  transform="matrix(1 0 0 1 -115.8758 -32.0318)">
</image>
<path class="st0" d="M-9.3,5.4h-14.8c-0.6,0-1.1,0.5-1.1,1.1v11c0,0.6,0.5,1.1,1.1,1.1h14.8c0.6,0,1.1-0.5,1.1-1.1v-11
	C-8.2,5.9-8.7,5.4-9.3,5.4z M-18.6,16.8h-3.9c-0.6,0-1-0.4-1-1s0.4-1,1-1h3.8c0.6,0,1,0.4,1,1C-17.6,16.4-18.1,16.8-18.6,16.8z
	 M-10.9,16.8c-0.6,0-1-0.4-1-1s0.4-1,1-1s1,0.4,1,1S-10.4,16.8-10.9,16.8z M-9.9,11.9c0,0.6-0.5,1.1-1.1,1.1h-11.3
	c-0.6,0-1.1-0.5-1.1-1.1V8.3c0-0.6,0.5-1.1,1.1-1.1h11.2c0.6,0,1.1,0.5,1.1,1.1L-9.9,11.9L-9.9,11.9z"/>
<path class="st0" d="M-32.4,35.7h-53.4c-1.7,0-3-1.3-3-3v-40c0-1.7,1.3-3,3-3h53.4c1.7,0,3,1.3,3,3v40
	C-29.4,34.4-30.7,35.7-32.4,35.7z"/>
<rect x="-82.8" y="-4" class="st1" width="47.6" height="20.8"/>
<path d="M19.7,5.4H4.3c-0.5,0-0.9,0.4-0.9,0.9v11.5c0,0.5,0.4,0.9,0.9,0.9h15.3c0.5,0,0.9-0.4,0.9-0.9V6.3
	C20.5,5.8,20.1,5.4,19.7,5.4z M18.9,13.2H5.2v-6h13.7V13.2z"/>
</svg>
