<?xml version="1.0" encoding="utf-8"?>
<!-- Generator: Adobe Illustrator 26.0.2, SVG Export Plug-In . SVG Version: 6.00 Build 0)  -->
<svg version="1.1" id="Layer_1" focusable="false" xmlns="http://www.w3.org/2000/svg" xmlns:xlink="http://www.w3.org/1999/xlink"
	 x="0px" y="0px" viewBox="0 0 24 24" style="enable-background:new 0 0 24 24;" xml:space="preserve">
<g>
	<path d="M20,4l0,9.7h-4.6V4H20 M20.6,2h-5.8c-0.8,0-1.4,0.7-1.4,1.6v10.6c0,0.9,0.6,1.6,1.4,1.6h5.8c0.4,0,0.7-0.2,1-0.5
		c0.3-0.3,0.4-0.7,0.4-1.1l0-10.6C22,2.7,21.3,2,20.6,2L20.6,2z"/>
</g>
<g>
	<path d="M8.6,4l0,16H4.1V4H8.6 M9.3,2H3.5C2.7,2,2.1,2.6,2.1,3.4v17.3c0,0.8,0.6,1.4,1.4,1.4h5.8c0.4,0,0.7-0.2,1-0.4
		c0.3-0.3,0.4-0.6,0.4-1l0-17.3C10.6,2.6,10,2,9.3,2L9.3,2z"/>
</g>
</svg>
