<?xml version="1.0" encoding="utf-8"?>
<!-- Generator: Adobe Illustrator 26.0.2, SVG Export Plug-In . SVG Version: 6.00 Build 0)  -->
<svg version="1.0" id="Layer_1" xmlns="http://www.w3.org/2000/svg" xmlns:xlink="http://www.w3.org/1999/xlink" x="0px" y="0px"
	 viewBox="0 0 24 24" style="enable-background:new 0 0 24 24;" xml:space="preserve">
<path d="M-37.2,3c-1.1,0-2,0.9-2,2v14c0,1.1,0.9,2,2,2h14c1.1,0,2-0.9,2-2v-6.8c0-0.6-0.4-1-1-1h0c-0.6,0-1,0.4-1,1l0,5.8
	c0,0.6-0.4,1-1,1h-12c-0.6,0-1-0.4-1-1V6c0-0.6,0.4-1,1-1h9.8c0.6,0,1-0.4,1-1v0c0-0.6-0.4-1-1-1H-37.2z"/>
<path d="M-21.6,4l-9.1,9.1c-0.3,0.3-0.7,0.3-0.9,0l-2.1-2.1c-0.4-0.4-1-0.4-1.4,0v0c-0.4,0.4-0.4,1,0,1.4l3.3,3.3
	c0.4,0.4,1,0.4,1.4,0l10.3-10.3c0.4-0.4,0.4-1,0-1.4l0,0C-20.6,3.6-21.2,3.6-21.6,4z"/>
<image style="display:none;overflow:visible;" width="76" height="82" xlink:href="A7A7B3C3.jpg"  transform="matrix(0.1024 -0.1024 0.1024 0.1024 -28.16 10.7717)">
</image>
<path d="M4.9,19.1c-2.6-2.6-2.6-6.8,0-9.3l6.1-6.1c0.8-0.8,2-0.8,2.8,0l6.5,6.5c0.8,0.8,0.8,2,0,2.8l-6.1,6.1
	C11.7,21.6,7.5,21.6,4.9,19.1z M12.6,4.9L6.3,11c-1.9,1.9-1.9,4.9,0,6.7s4.9,1.8,6.7,0l6.1-6.1L12.6,4.9z M7.9,16.1
	c-1.1-1.1-1.1-3,0-4.1s3-1.1,4.1,0c1.1,1.1,1.1,3,0,4.1S9,17.3,7.9,16.1z M10.7,13.3c-0.4-0.4-1.1-0.4-1.5,0s-0.4,1.1,0,1.5
	c0.4,0.4,1.1,0.4,1.5,0C11.1,14.4,11.1,13.7,10.7,13.3z"/>
</svg>
