<?xml version="1.0" encoding="utf-8"?>
<!-- Generator: Adobe Illustrator 26.0.2, SVG Export Plug-In . SVG Version: 6.00 Build 0)  -->
<svg version="1.1" id="Layer_1" xmlns="http://www.w3.org/2000/svg" xmlns:xlink="http://www.w3.org/1999/xlink" x="0px" y="0px"
	 viewBox="0 0 24 24" style="enable-background:new 0 0 24 24;" xml:space="preserve">
<path d="M19.4,5.4H4.6C4,5.4,3.5,5.9,3.5,6.5v11c0,0.6,0.5,1.1,1.1,1.1h14.8c0.6,0,1.1-0.5,1.1-1.1v-11C20.5,5.9,20,5.4,19.4,5.4z
	 M10.1,16.8H6.2c-0.6,0-1-0.4-1-1s0.4-1,1-1H10c0.6,0,1,0.4,1,1C11.1,16.4,10.6,16.8,10.1,16.8z M17.8,16.8c-0.6,0-1-0.4-1-1
	s0.4-1,1-1s1,0.4,1,1S18.3,16.8,17.8,16.8z M18.8,11.9c0,0.6-0.5,1.1-1.1,1.1H6.4c-0.6,0-1.1-0.5-1.1-1.1V8.3c0-0.6,0.5-1.1,1.1-1.1
	h11.2c0.6,0,1.1,0.5,1.1,1.1L18.8,11.9L18.8,11.9z"/>
</svg>
