<?xml version="1.0" encoding="utf-8"?>
<!-- Generator: Adobe Illustrator 26.0.2, SVG Export Plug-In . SVG Version: 6.00 Build 0)  -->
<svg version="1.1" id="Layer_1" focusable="false" xmlns="http://www.w3.org/2000/svg" xmlns:xlink="http://www.w3.org/1999/xlink"
	 x="0px" y="0px" viewBox="0 0 24 24" style="enable-background:new 0 0 24 24;" xml:space="preserve">
<path d="M7.5,21l4.5-2.4l4.5,2.4c0.3,0.2,0.6,0.2,1,0.2c0.8-0.1,1.4-0.9,1.3-1.8l-0.9-5l3.6-3.6c0.2-0.2,0.4-0.5,0.5-0.9
	c0.1-0.8-0.5-1.6-1.3-1.8l-5-0.7l-2.3-4.6c-0.2-0.3-0.4-0.6-0.7-0.7c-0.8-0.4-1.7-0.1-2.1,0.7L8.4,7.4l-5,0.7C3,8.2,2.7,8.4,2.4,8.6
	c-0.6,0.6-0.6,1.6,0,2.2l3.6,3.6l-0.9,5c-0.1,0.3,0,0.7,0.2,1C5.8,21.1,6.7,21.4,7.5,21z M19.3,10l-3.7,3.6l0.9,5.1L12,16.3
	l-4.5,2.4l0.9-5.1L4.7,10l5.1-0.7L12,4.7l2.3,4.6L19.3,10z"/>
</svg>
